<svg width="164" height="34" viewBox="0 0 164 34" fill="none" xmlns="http://www.w3.org/2000/svg">
<path d="M4.90909 17.8964V17.8964C3.85473 17.8964 3 17.0416 3 15.9873V14.5238C3 12.6611 4.50997 11.1511 6.37261 11.1511H15.4091M4.90909 17.8964V27C4.90909 29.7614 7.14767 32 9.90909 32H17M4.90909 17.8964H17M29.0909 17.8964V17.8964C30.1453 17.8964 31 17.0416 31 15.9873V14.5238C31 12.6611 29.49 11.1511 27.6274 11.1511H18.9091M29.0909 17.8964V27C29.0909 29.7614 26.8523 32 24.0909 32H17M29.0909 17.8964H17M17 32V17.8964M17 17.8964V11.4577C17.4242 8.18734 19.3545 2.25973 23.6818 4.71253C28.0091 7.16534 22.303 10.0269 18.9091 11.1511M18.9091 11.1511H17.1591M15.4091 11.1511C11.803 9.82255 5.48182 6.30686 9.04545 2.87294C12.6091 -0.560992 15.9394 6.96094 17.1591 11.1511M15.4091 11.1511H17.1591" stroke="#38393A" stroke-width="1.5" stroke-linejoin="round"/>
<path d="M42.53 28V15.22H52.394V28H50.774V16.66H44.15V28H42.53ZM59.3019 28.18C58.3659 28.18 57.5379 27.958 56.8179 27.514C56.1099 27.058 55.5579 26.464 55.1619 25.732C54.7659 24.988 54.5679 24.184 54.5679 23.32C54.5679 22.444 54.7659 21.64 55.1619 20.908C55.5699 20.164 56.1279 19.57 56.8359 19.126C57.5559 18.67 58.3779 18.442 59.3019 18.442C60.2379 18.442 61.0599 18.67 61.7679 19.126C62.4879 19.57 63.0459 20.164 63.4419 20.908C63.8499 21.64 64.0539 22.444 64.0539 23.32C64.0539 24.184 63.8499 24.988 63.4419 25.732C63.0459 26.464 62.4939 27.058 61.7859 27.514C61.0779 27.958 60.2499 28.18 59.3019 28.18ZM56.1879 23.338C56.1879 23.986 56.3259 24.574 56.6019 25.102C56.8899 25.63 57.2679 26.05 57.7359 26.362C58.2039 26.662 58.7259 26.812 59.3019 26.812C59.8779 26.812 60.3999 26.656 60.8679 26.344C61.3479 26.032 61.7259 25.612 62.0019 25.084C62.2899 24.544 62.4339 23.95 62.4339 23.302C62.4339 22.654 62.2899 22.066 62.0019 21.538C61.7259 21.01 61.3479 20.59 60.8679 20.278C60.3999 19.966 59.8779 19.81 59.3019 19.81C58.7259 19.81 58.2039 19.972 57.7359 20.296C57.2679 20.608 56.8899 21.028 56.6019 21.556C56.3259 22.084 56.1879 22.678 56.1879 23.338ZM64.9293 30.214V26.596H65.1273C65.4753 26.596 65.7873 26.452 66.0633 26.164C66.3513 25.864 66.5853 25.336 66.7653 24.58C66.9453 23.812 67.0533 22.726 67.0893 21.322L67.1793 18.604H73.5693V26.596H74.8473V30.214H73.4433V28H66.3333V30.214H64.9293ZM67.3413 26.596H71.9853V20.008H68.5833L68.5293 21.466C68.4813 23.002 68.3553 24.166 68.1513 24.958C67.9593 25.75 67.6893 26.296 67.3413 26.596ZM75.8701 25.282C75.8701 24.682 76.0381 24.166 76.3741 23.734C76.7221 23.29 77.1961 22.948 77.7961 22.708C78.3961 22.468 79.0921 22.348 79.8841 22.348C80.3041 22.348 80.7481 22.384 81.2161 22.456C81.6841 22.516 82.0981 22.612 82.4581 22.744V22.06C82.4581 21.34 82.2421 20.776 81.8101 20.368C81.3781 19.948 80.7661 19.738 79.9741 19.738C79.4581 19.738 78.9601 19.834 78.4801 20.026C78.0121 20.206 77.5141 20.47 76.9861 20.818L76.4101 19.702C77.0221 19.282 77.6341 18.97 78.2461 18.766C78.8581 18.55 79.4941 18.442 80.1541 18.442C81.3541 18.442 82.3021 18.778 82.9981 19.45C83.6941 20.11 84.0421 21.034 84.0421 22.222V26.2C84.0421 26.572 84.2101 26.764 84.5461 26.776V28C84.3901 28.024 84.2521 28.042 84.1321 28.054C84.0241 28.066 83.9341 28.072 83.8621 28.072C83.4901 28.072 83.2081 27.97 83.0161 27.766C82.8361 27.562 82.7341 27.346 82.7101 27.118L82.6741 26.524C82.2661 27.052 81.7321 27.46 81.0721 27.748C80.4121 28.036 79.7581 28.18 79.1101 28.18C78.4861 28.18 77.9281 28.054 77.4361 27.802C76.9441 27.538 76.5601 27.19 76.2841 26.758C76.0081 26.314 75.8701 25.822 75.8701 25.282ZM81.9901 25.948C82.1341 25.78 82.2481 25.612 82.3321 25.444C82.4161 25.264 82.4581 25.114 82.4581 24.994V23.824C81.6901 23.524 80.8981 23.374 80.0821 23.374C79.2781 23.374 78.6241 23.536 78.1201 23.86C77.6281 24.172 77.3821 24.604 77.3821 25.156C77.3821 25.456 77.4601 25.75 77.6161 26.038C77.7841 26.314 78.0241 26.542 78.3361 26.722C78.6601 26.902 79.0561 26.992 79.5241 26.992C80.0161 26.992 80.4841 26.896 80.9281 26.704C81.3721 26.5 81.7261 26.248 81.9901 25.948ZM91.6329 28.18C90.8649 28.18 90.1809 27.988 89.5809 27.604C88.9809 27.22 88.5069 26.734 88.1589 26.146V31.834H86.5749V18.604H87.9789V20.368C88.3509 19.792 88.8369 19.33 89.4369 18.982C90.0369 18.622 90.6909 18.442 91.3989 18.442C92.0469 18.442 92.6409 18.574 93.1809 18.838C93.7209 19.102 94.1889 19.462 94.5849 19.918C94.9809 20.374 95.2869 20.896 95.5029 21.484C95.7309 22.06 95.8449 22.666 95.8449 23.302C95.8449 24.19 95.6649 25.006 95.3049 25.75C94.9569 26.494 94.4649 27.088 93.8289 27.532C93.1929 27.964 92.4609 28.18 91.6329 28.18ZM91.1469 26.812C91.7709 26.812 92.3109 26.644 92.7669 26.308C93.2229 25.972 93.5769 25.534 93.8289 24.994C94.0929 24.454 94.2249 23.89 94.2249 23.302C94.2249 22.666 94.0809 22.084 93.7929 21.556C93.5169 21.028 93.1329 20.608 92.6409 20.296C92.1609 19.972 91.6149 19.81 91.0029 19.81C90.6309 19.81 90.2349 19.906 89.8149 20.098C89.4069 20.29 89.0469 20.548 88.7349 20.872C88.4349 21.184 88.2429 21.532 88.1589 21.916V24.598C88.4229 25.222 88.8249 25.75 89.3649 26.182C89.9169 26.602 90.5109 26.812 91.1469 26.812ZM97.7717 28V18.604H99.3557V22.474H100.4L103.352 18.604H105.152L101.642 23.158L105.566 28H103.73L100.4 23.932H99.3557V28H97.7717ZM107.106 28V18.622H108.69V25.876L113.946 18.604H115.386V28H113.802V20.89L108.618 28H107.106ZM122.451 28V18.604H127.311C127.875 18.604 128.343 18.718 128.715 18.946C129.087 19.162 129.363 19.444 129.543 19.792C129.735 20.14 129.831 20.512 129.831 20.908C129.831 21.412 129.711 21.868 129.471 22.276C129.231 22.672 128.883 22.972 128.427 23.176C128.967 23.332 129.405 23.614 129.741 24.022C130.077 24.418 130.245 24.91 130.245 25.498C130.245 26.29 129.963 26.908 129.399 27.352C128.847 27.784 128.121 28 127.221 28H122.451ZM123.963 22.744H126.897C127.317 22.744 127.659 22.588 127.923 22.276C128.199 21.952 128.337 21.586 128.337 21.178C128.337 20.782 128.205 20.44 127.941 20.152C127.689 19.864 127.359 19.72 126.951 19.72H123.963V22.744ZM123.963 26.884H127.185C127.617 26.884 127.977 26.728 128.265 26.416C128.565 26.104 128.715 25.744 128.715 25.336C128.715 24.916 128.571 24.556 128.283 24.256C128.007 23.944 127.659 23.788 127.239 23.788H123.963V26.884ZM136.418 28.18C135.482 28.18 134.654 27.958 133.934 27.514C133.214 27.058 132.65 26.458 132.242 25.714C131.834 24.97 131.63 24.16 131.63 23.284C131.63 22.396 131.828 21.586 132.224 20.854C132.62 20.122 133.178 19.54 133.898 19.108C134.618 18.664 135.452 18.442 136.4 18.442C137.324 18.442 138.128 18.652 138.812 19.072C139.508 19.48 140.024 20.032 140.36 20.728L138.812 21.214C138.572 20.77 138.236 20.428 137.804 20.188C137.372 19.936 136.892 19.81 136.364 19.81C135.788 19.81 135.26 19.96 134.78 20.26C134.312 20.56 133.94 20.974 133.664 21.502C133.388 22.018 133.25 22.612 133.25 23.284C133.25 23.944 133.388 24.544 133.664 25.084C133.952 25.612 134.33 26.032 134.798 26.344C135.278 26.656 135.806 26.812 136.382 26.812C136.754 26.812 137.108 26.746 137.444 26.614C137.792 26.482 138.092 26.308 138.344 26.092C138.608 25.864 138.788 25.618 138.884 25.354L140.432 25.822C140.156 26.506 139.652 27.07 138.92 27.514C138.2 27.958 137.366 28.18 136.418 28.18ZM146.297 28.18C145.361 28.18 144.533 27.958 143.813 27.514C143.093 27.07 142.529 26.476 142.121 25.732C141.713 24.988 141.509 24.178 141.509 23.302C141.509 22.414 141.713 21.604 142.121 20.872C142.529 20.14 143.093 19.552 143.813 19.108C144.545 18.664 145.379 18.442 146.315 18.442C147.263 18.442 148.085 18.67 148.781 19.126C149.489 19.57 150.035 20.158 150.419 20.89C150.815 21.61 151.013 22.39 151.013 23.23C151.013 23.494 151.001 23.698 150.977 23.842H143.183C143.231 24.454 143.399 25 143.687 25.48C143.987 25.948 144.371 26.32 144.839 26.596C145.307 26.86 145.811 26.992 146.351 26.992C146.927 26.992 147.467 26.848 147.971 26.56C148.487 26.272 148.841 25.894 149.033 25.426L150.401 25.804C150.101 26.5 149.579 27.07 148.835 27.514C148.091 27.958 147.245 28.18 146.297 28.18ZM143.129 22.744H149.537C149.489 22.132 149.315 21.592 149.015 21.124C148.715 20.656 148.331 20.29 147.863 20.026C147.395 19.762 146.879 19.63 146.315 19.63C145.763 19.63 145.253 19.762 144.785 20.026C144.317 20.29 143.933 20.656 143.633 21.124C143.345 21.592 143.177 22.132 143.129 22.744ZM152.756 28V18.604H154.394L157.886 24.76L161.396 18.604H162.998V28H161.486V20.89L158.39 26.326H157.382L154.268 20.89V28H152.756Z" fill="#38393A"/>
</svg>
